<?xml version="1.0" encoding="UTF-8"?>
<svg width="27px" height="40px" viewBox="0 0 27 40" version="1.1" xmlns="http://www.w3.org/2000/svg" xmlns:xlink="http://www.w3.org/1999/xlink">
    <!-- Generator: sketchtool 40.3 (33839) - http://www.bohemiancoding.com/sketch -->
    <title>BC2B427B-BBAD-4F63-9084-F7F06AFE7C3D</title>
    <desc>Created with sketchtool.</desc>
    <defs></defs>
    <g id="Page-1" stroke="none" stroke-width="1" fill="none" fill-rule="evenodd">
        <g id="Home" transform="translate(-229.000000, -1223.000000)" fill="#000000">
            <g id="Couverts" transform="translate(229.166667, 1223.000000)">
                <g id="Group">
                    <path d="M9.93955556,0.0711111111 C9.76755556,0.0711111111 9.62844444,0.210222222 9.62844444,0.382222222 L9.62755556,10.5022222 C9.628,11.4017778 9.28577778,12.2564444 8.71288889,12.8808889 C8.13866667,13.5048889 7.344,13.9004444 6.412,13.9013333 C6.32666667,13.9013333 6.244,13.9373333 6.18488889,13.9995556 C6.12666667,14.0617778 6.096,14.1462222 6.10133333,14.2315556 L7.51288889,37.1204444 C7.51111111,37.7288889 7.25511111,38.2782222 6.83377778,38.6822222 C6.412,39.0853333 5.828,39.3368889 5.17866667,39.3373333 C4.52933333,39.3373333 3.94622222,39.0862222 3.524,38.6831111 C3.10311111,38.2795556 2.84711111,37.7297778 2.84622222,37.1195556 L4.25466667,14.232 C4.26,14.1466667 4.22933333,14.0622222 4.17111111,14 C4.11288889,13.9377778 4.03022222,13.9017778 3.94444444,13.9017778 C3.01244444,13.9008889 2.21777778,13.5053333 1.644,12.8808889 C1.07155556,12.256 0.729333333,11.4013333 0.729777778,10.5013333 L0.729777778,0.380444444 C0.729777778,0.208444444 0.590666667,0.0693333333 0.418666667,0.0693333333 C0.246666667,0.0693333333 0.107555556,0.208444444 0.107555556,0.380444444 L0.107555556,10.5008889 C0.108,11.5582222 0.506222222,12.5591111 1.18533333,13.3008889 C1.79511111,13.968 2.64088889,14.4213333 3.61466667,14.5062222 L2.22488889,37.0986667 L2.224,37.1177778 C2.224,37.9057778 2.55866667,38.6208889 3.09422222,39.1324444 C3.62933333,39.6444444 4.368,39.9591111 5.17911111,39.9591111 C6.80044444,39.9591111 8.13244444,38.6977778 8.13511111,37.1182222 L8.13422222,37.0991111 L6.74088889,14.5053333 C7.71466667,14.4208889 8.56088889,13.968 9.17066667,13.3008889 C9.84977778,12.5595556 10.2488889,11.5591111 10.2493333,10.5017778 L10.2502222,0.381777778 C10.2506667,0.210222222 10.1115556,0.0711111111 9.93955556,0.0711111111 L9.93955556,0.0711111111 Z" id="Shape"></path>
                    <path d="M3.592,10.8133333 C3.764,10.8133333 3.90311111,10.6742222 3.90311111,10.5022222 L3.90311111,0.381333333 C3.90311111,0.209333333 3.764,0.0702222222 3.592,0.0702222222 C3.42,0.0702222222 3.28088889,0.209333333 3.28088889,0.381333333 L3.28088889,10.5017778 C3.28088889,10.6737778 3.42,10.8133333 3.592,10.8133333 L3.592,10.8133333 Z" id="Shape"></path>
                    <path d="M6.76577778,10.8142222 C6.93777778,10.8142222 7.07688889,10.6751111 7.07688889,10.5031111 L7.07777778,0.382222222 C7.07777778,0.210222222 6.93866667,0.0711111111 6.76666667,0.0711111111 C6.59466667,0.0711111111 6.45555556,0.210222222 6.45555556,0.382222222 L6.45466667,10.5026667 C6.45422222,10.6746667 6.59377778,10.8142222 6.76577778,10.8142222 L6.76577778,10.8142222 Z" id="Shape"></path>
                    <path d="M24.2426667,2.35688889 C22.9013333,0.919555556 21.1991111,0.0457777778 19.6675556,0.0408888889 C18.136,0.0457777778 16.4337778,0.919555556 15.092,2.35688889 C13.7528889,3.796 12.7768889,5.82044444 12.7764444,8.15644444 C12.7768889,10.2128889 13.2368889,12.1088889 14.1617778,13.5915556 C15.0373333,14.9986667 16.352,16.02 18.0444444,16.4151111 L16.6471111,37.12 L16.6462222,37.1413333 C16.6462222,37.9226667 16.9777778,38.6315556 17.508,39.1386667 C18.0382222,39.6466667 18.7702222,39.9591111 19.5737778,39.9591111 C21.1804444,39.9595556 22.4991111,38.7088889 22.5022222,37.1422222 L22.5017778,37.1235556 L21.2777778,16.4177778 C22.9742222,16.0262222 24.292,15.0044444 25.1697778,13.5964444 C26.0968889,12.1128889 26.5577778,10.2155556 26.5586667,8.15644444 C26.5582222,5.82044444 25.5822222,3.79644444 24.2426667,2.35688889 L24.2426667,2.35688889 Z M24.6422222,13.2666667 C23.7902222,14.6244444 22.5493333,15.5591111 20.8942222,15.8711111 C20.74,15.9 20.6315556,16.0391111 20.6408889,16.1951111 L21.8795556,37.1457778 C21.8777778,37.7475556 21.6248889,38.2902222 21.2088889,38.6893333 C20.792,39.0875556 20.2155556,39.336 19.5737778,39.3364444 C18.932,39.3364444 18.3551111,39.0875556 17.9382222,38.6888889 C17.5222222,38.2902222 17.2693333,37.7466667 17.2684444,37.144 L18.6822222,16.1955556 C18.6924444,16.0382222 18.5844444,15.8982222 18.4297778,15.8688889 C16.7777778,15.5537778 15.5395556,14.6186667 14.6893333,13.2613333 C13.8413333,11.9048889 13.3977778,10.1208889 13.3986667,8.15644444 C13.3982222,5.99822222 14.3017778,4.12 15.5475556,2.78044444 C16.7906667,1.43955556 18.3786667,0.658666667 19.6675556,0.663111111 C20.956,0.658222222 22.544,1.43955556 23.7875556,2.78044444 C25.0333333,4.12 25.9368889,5.99733333 25.9364444,8.15644444 C25.9364444,10.1231111 25.492,11.9093333 24.6422222,13.2666667 L24.6422222,13.2666667 Z" id="Shape"></path>
                    <path d="M17.78,3.17333333 C16.9484444,3.71555556 16.2937778,4.36977778 15.8404444,5.14 C15.3866667,5.90888889 15.1368889,6.79066667 15.0991111,7.77022222 C15.092,7.94177778 15.2257778,8.08622222 15.3977778,8.09333333 C15.5693333,8.10044444 15.7142222,7.96666667 15.7208889,7.79466667 C15.756,6.90488889 15.9782222,6.13333333 16.3768889,5.456 C16.776,4.77955556 17.3551111,4.19422222 18.1208889,3.69422222 C18.2644444,3.6 18.3048889,3.40711111 18.2111111,3.26355556 C18.1173333,3.12 17.924,3.07911111 17.78,3.17333333 L17.78,3.17333333 Z" id="Shape"></path>
                </g>
            </g>
        </g>
    </g>
</svg>