<?xml version="1.0" encoding="UTF-8"?>
<svg width="44px" height="44px" viewBox="0 0 44 44" version="1.1" xmlns="http://www.w3.org/2000/svg" xmlns:xlink="http://www.w3.org/1999/xlink">
    <!-- Generator: sketchtool 40.3 (33839) - http://www.bohemiancoding.com/sketch -->
    <title>9B3461F3-9D2D-45F4-9790-80EAD2297650</title>
    <desc>Created with sketchtool.</desc>
    <defs>
        <circle id="path-1" cx="62" cy="156" r="22"></circle>
        <mask id="mask-2" maskContentUnits="userSpaceOnUse" maskUnits="objectBoundingBox" x="0" y="0" width="44" height="44" fill="white">
            <use xlink:href="#path-1"></use>
        </mask>
    </defs>
    <g id="Page-1" stroke="none" stroke-width="1" fill="none" fill-rule="evenodd">
        <g id="Home" transform="translate(-644.000000, -2342.000000)">
            <g id="Footer" transform="translate(0.000000, 2208.000000)">
                <g id="instagram" transform="translate(604.000000, 0.000000)">
                    <rect id="Rectangle" x="40" y="134" width="44" height="44"></rect>
                    <use id="Oval" stroke="#FFFFFF" mask="url(#mask-2)" stroke-width="4" xlink:href="#path-1"></use>
                    <path d="M61.9999782,146.982022 C64.9371191,146.982022 65.2849947,146.9932 66.4449003,147.046122 C67.5173894,147.09507 68.0998311,147.274269 68.4874851,147.424868 C69.0008931,147.624415 69.3673699,147.862824 69.752273,148.247727 C70.1371762,148.63263 70.3755848,148.999107 70.5750882,149.512515 C70.7257309,149.900169 70.9049303,150.482611 70.9538783,151.555056 C71.0067998,152.715005 71.0179779,153.062881 71.0179779,156.000022 C71.0179779,158.937163 71.0067998,159.285038 70.9538783,160.444944 C70.9049303,161.517433 70.7257309,162.099875 70.5750882,162.487529 C70.3755848,163.000937 70.1371762,163.367414 69.752273,163.752317 C69.3673699,164.13722 69.0008931,164.375628 68.4874851,164.575132 C68.0998311,164.725775 67.5173894,164.904974 66.4449003,164.953922 C65.2851693,165.006843 64.9372937,165.018022 61.9999782,165.018022 C59.0626626,165.018022 58.714787,165.006843 57.5550561,164.953922 C56.4825669,164.904974 55.9001252,164.725775 55.5125149,164.575132 C54.9990632,164.375628 54.6325865,164.13722 54.2476833,163.752317 C53.8627801,163.367414 53.6243716,163.000937 53.4248682,162.487529 C53.2742254,162.099875 53.095026,161.517433 53.046078,160.444988 C52.9931566,159.285038 52.9819784,158.937163 52.9819784,156.000022 C52.9819784,153.062881 52.9931566,152.715005 53.046078,151.5551 C53.095026,150.482611 53.2742254,149.900169 53.4248682,149.512515 C53.6243716,148.999107 53.8627801,148.63263 54.2476833,148.247727 C54.6325865,147.862824 54.9990632,147.624415 55.5125149,147.424868 C55.9001252,147.274269 56.4825669,147.09507 57.5550124,147.046122 C58.7149617,146.9932 59.0628373,146.982022 61.9999782,146.982022 M61.9999782,145 C59.0125357,145 58.637981,145.012663 57.4647141,145.066195 C56.2938487,145.119641 55.4942631,145.305565 54.7945384,145.577508 C54.0711911,145.85862 53.4577476,146.234747 52.8462253,146.846269 C52.234703,147.457791 51.8585764,148.071235 51.5774639,148.794582 C51.305521,149.494307 51.1195973,150.293892 51.0661518,151.464758 C51.0126191,152.637981 51,153.012579 51,156.000022 C51,158.987464 51.0126191,159.362063 51.0661518,160.535286 C51.1195973,161.706151 51.305521,162.505737 51.5774639,163.205462 C51.8585764,163.928765 52.234703,164.542252 52.8462253,165.153775 C53.4577476,165.765297 54.0711911,166.141424 54.7945384,166.422536 C55.4942631,166.694479 56.2938487,166.880403 57.4647141,166.933848 C58.637981,166.987381 59.0125357,167 61.9999782,167 C64.9874206,167 65.362019,166.987381 66.5352423,166.933848 C67.7061077,166.880403 68.5056933,166.694479 69.205418,166.422536 C69.9287652,166.141424 70.5422088,165.765297 71.153731,165.153775 C71.7652533,164.542252 72.1413799,163.928809 72.4224924,163.205462 C72.6944353,162.505737 72.8803591,161.706151 72.9338045,160.535286 C72.9873373,159.362063 73,158.987464 73,156.000022 C73,153.012579 72.9873373,152.637981 72.9338045,151.464758 C72.8803591,150.293892 72.6944353,149.494307 72.4224924,148.794582 C72.1413799,148.071235 71.7652533,147.457791 71.153731,146.846269 C70.5422088,146.234747 69.9287652,145.85862 69.205418,145.577508 C68.5056933,145.305565 67.7061077,145.119641 66.5352423,145.066195 C65.362019,145.012663 64.9874206,145 61.9999782,145 Z M62.0218254,150.369048 C58.8998963,150.369048 56.3690476,152.899896 56.3690476,156.021825 C56.3690476,159.143755 58.8998963,161.674603 62.0218254,161.674603 C65.1437545,161.674603 67.6746032,159.143755 67.6746032,156.021825 C67.6746032,152.899896 65.1437545,150.369048 62.0218254,150.369048 Z M62.0218254,159.691182 C59.99532,159.691182 58.3524685,158.048331 58.3524685,156.021825 C58.3524685,153.99532 59.99532,152.352468 62.0218254,152.352468 C64.0483308,152.352468 65.6911823,153.99532 65.6911823,156.021825 C65.6911823,158.048331 64.0483308,159.691182 62.0218254,159.691182 Z M69.1587302,150.107121 C69.1587302,150.830358 68.5724648,151.416667 67.849228,151.416667 C67.1259912,151.416667 66.5396825,150.830358 66.5396825,150.107121 C66.5396825,149.383884 67.1259912,148.797619 67.849228,148.797619 C68.5724648,148.797619 69.1587302,149.383884 69.1587302,150.107121 Z" id="Shape" fill="#FFFFFF"></path>
                </g>
            </g>
        </g>
    </g>
</svg>