<?xml version="1.0" encoding="utf-8"?>
<!-- Generator: Adobe Illustrator 19.2.1, SVG Export Plug-In . SVG Version: 6.00 Build 0)  -->
<svg version="1.1" id="Calque_1" xmlns="http://www.w3.org/2000/svg" xmlns:xlink="http://www.w3.org/1999/xlink" x="0px" y="0px"
	 viewBox="0 0 176.7 164.8" style="enable-background:new 0 0 176.7 164.8;" xml:space="preserve">
<style type="text/css">
	.st0{fill:none;stroke:#231F20;stroke-width:0.25;stroke-miterlimit:10;}
	.st1{fill:#FFFFFF;}
</style>
<rect x="-58.2" y="-59.9" class="st0" width="286.4" height="286.4"/>
<g>
	<g>
		<ellipse class="st1" cx="59.3" cy="134.1" rx="4.4" ry="4.3"/>
	</g>
	<ellipse class="st1" cx="72.2" cy="134.1" rx="4.4" ry="4.3"/>
	<ellipse class="st1" cx="85.2" cy="134.1" rx="4.4" ry="4.3"/>
	<ellipse class="st1" cx="98.1" cy="134.1" rx="4.4" ry="4.3"/>
	<ellipse class="st1" cx="111" cy="134.1" rx="4.4" ry="4.3"/>
</g>
<g>
	<g>
		<path class="st1" d="M85.2,160.3c-31.1,0-58-18.4-70.5-44.8H9.8c12.8,29,41.8,49.3,75.4,49.3c33.7,0,62.7-20.3,75.4-49.3h-4.9
			C143.2,141.9,116.3,160.3,85.2,160.3z"/>
		<path class="st1" d="M85.2,4.5c34.8,0,64.3,22.9,74.3,54.5h4.7C154,24.9,122.5,0,85.2,0s-68.8,24.9-79,58.9h4.7
			C20.8,27.4,50.4,4.5,85.2,4.5z"/>
	</g>
	<g>
		<g>
			<path class="st1" d="M61.6,37.3c0-8.9-6.5-8.2-6.5-8.2h-7.9v29.2h4.4V45.6h2.5L58,58.3h4.8l-4.7-13.6
				C59.9,43.7,61.6,41.6,61.6,37.3z M51.7,33.3h2.4c0,0,2.9-0.2,2.9,4.3s-2.6,4.3-2.6,4.3h-2.6v-8.6H51.7z"/>
		</g>
		<g>
			<path class="st1" d="M148.4,106.3l-6.7-19.6c2.5-1.4,5-4.4,5-10.6c0-12.8-9.3-11.8-9.3-11.8h-11.3v42h6.4V88h3.6l5.3,18.3H148.4z
				 M132.4,70.3h3.4c0,0,4.1-0.2,4.1,6.1c0,6.3-3.8,6.1-3.8,6.1h-3.8V70.3H132.4z"/>
		</g>
		<g>
			<path class="st1" d="M72.7,28.8c-7.3,0-7,7.3-7,7.3v16c0,0,0.1,6.5,6.8,6.5c6.7,0,7.3-6.7,7.3-6.7V36.2
				C79.8,36.2,80,28.8,72.7,28.8z M75.4,35.5v16.7c0,0-0.2,2.5-2.7,2.5s-2.6-2.4-2.6-2.4V35.5c0,0-0.1-2.8,2.6-2.8
				C75.5,32.7,75.4,35.5,75.4,35.5z"/>
		</g>
		<g>
			<path class="st1" d="M91.2,28.8c-7.3,0-7,7.3-7,7.3v16c0,0,0.1,6.5,6.8,6.5c6.7,0,7.3-6.7,7.3-6.7V36.2
				C98.2,36.2,98.4,28.8,91.2,28.8z M93.8,35.5v16.7c0,0-0.2,2.5-2.7,2.5s-2.5-2.4-2.5-2.4V35.5c0,0-0.1-2.8,2.6-2.8
				S93.8,35.5,93.8,35.5z"/>
		</g>
		<g>
			<polygon class="st1" points="118.1,29.1 117.2,29.1 112.7,46.4 107.9,29.1 106.6,29.1 106.1,29.1 105.2,29.1 102.5,29.1 
				102.5,58.3 106.6,58.3 106.6,39.3 111.3,53.8 113.7,53.8 118.1,40.3 118.1,58.3 122.2,58.3 122.2,29.1 119,29.1 			"/>
		</g>
		<g>
			<path class="st1" d="M13.6,83c-7.2-5.6-6.7-5.4-6.7-9.4s3.2-4,3.2-4s3.4-0.1,3.4,4.2l0.1,3.1h6.5v-4.4c0,0-0.3-8.6-9.3-8.6
				C1.8,63.9,0,70.1,0,74.8c0,4.8,1.5,7.9,6.6,11.5s7,4.5,7,9.7s-3.5,4.9-3.5,4.9s-3.3,0.7-3.3-4.6v-2.6H0V98c0,0-0.1,8.7,10.4,8.7
				s9.7-10.5,9.7-10.5v-3.8C20.1,92.4,20.8,88.5,13.6,83z"/>
		</g>
		<g>
			<path class="st1" d="M164.4,83c-7.2-5.6-6.7-5.4-6.7-9.4s3.2-4,3.2-4s3.4-0.1,3.4,4.2l0.1,3.1h6.5v-4.4c0,0-0.3-8.6-9.3-8.6
				s-10.8,6.2-10.8,10.9c0,4.8,1.5,7.9,6.6,11.5c5.2,3.6,7,4.5,7,9.7s-3.5,4.9-3.5,4.9s-3.3,0.7-3.3-4.6v-2.6h-6.7V98
				c0,0-0.1,8.7,10.4,8.7s9.7-10.5,9.7-10.5v-3.8C170.9,92.4,171.6,88.5,164.4,83z"/>
		</g>
		<g>
			<path class="st1" d="M30.9,64.3l-8.8,42h0.3h6.5l1.4-7.9h8.8l1.4,7.9h6.9l-8.6-42H30.9z M31.3,92.7l3.4-18.8l3.4,18.8H31.3z"/>
		</g>
		<g>
			<polygon class="st1" points="65.3,64.3 59.4,96.6 53.6,64.3 46.8,64.3 55.4,106.3 63.3,106.3 72.1,64.3 71.8,64.3 			"/>
		</g>
		<g>
			<polygon class="st1" points="78.5,64.3 76,64.3 76,106.3 78.5,106.3 82.7,106.3 94.1,106.3 94.1,100.2 82.7,100.2 82.7,86.8 
				91.7,86.8 91.7,80.7 82.7,80.7 82.7,70.3 94.1,70.3 94.1,64.3 82.7,64.3 			"/>
		</g>
		<g>
			<path class="st1" d="M119.8,64.3h-6.7v31.3c0,0,0.3,5.5-3.6,5.5s-3.8-5.1-3.8-5.1V64.3H99v30.6c0,0-0.4,12,10.4,12
				c10.9,0,10.4-11.3,10.4-11.3S119.8,64.3,119.8,64.3z"/>
		</g>
	</g>
	<polygon class="st1" points="49.9,118.4 175.9,118.4 176.7,115.5 49.3,115.5 	"/>
	<path class="st1" d="M15.6,58.9C25.5,29.9,52.9,9,85.2,9s59.7,20.9,69.5,49.9h1.1C145.9,29.4,118,8,85.2,8
		C52.3,8,24.4,29.4,14.6,58.9H15.6z"/>
	<path class="st1" d="M150.7,115.5c-12.1,23.9-36.9,40.3-65.5,40.3s-53.4-16.4-65.5-40.3h-1.1c12.2,24.5,37.5,41.3,66.6,41.3
		s54.4-16.9,66.6-41.3H150.7z"/>
</g>
</svg>
