<?xml version="1.0" encoding="UTF-8"?>
<svg width="55px" height="56px" viewBox="0 0 55 56" version="1.1" xmlns="http://www.w3.org/2000/svg" xmlns:xlink="http://www.w3.org/1999/xlink">
    <!-- Generator: sketchtool 40.3 (33839) - http://www.bohemiancoding.com/sketch -->
    <title>981CC393-16D5-4A48-A5BD-E408123C50C8</title>
    <desc>Created with sketchtool.</desc>
    <defs>
        <circle id="path-1" cx="27.5" cy="27.5" r="27.5"></circle>
        <mask id="mask-2" maskContentUnits="userSpaceOnUse" maskUnits="objectBoundingBox" x="0" y="0" width="55" height="55" fill="white">
            <use xlink:href="#path-1"></use>
        </mask>
    </defs>
    <g id="Page-1" stroke="none" stroke-width="1" fill="none" fill-rule="evenodd">
        <g id="Popin-collaborative-url" transform="translate(-576.000000, -725.000000)">
            <g id="Réseaux-sociaux" transform="translate(576.000000, 725.000000)">
                <g id="skype" transform="translate(0.000000, 0.500000)">
                    <rect id="Rectangle" x="0" y="0" width="55" height="55"></rect>
                    <use id="Oval" stroke="#000000" mask="url(#mask-2)" stroke-width="4" xlink:href="#path-1"></use>
                    <path d="M41.6374647,30.6843478 C41.8544214,29.7069565 41.9673095,28.6965217 41.9673095,27.6565217 C41.9673095,19.8669565 35.5626764,13.5504348 27.6605127,13.5504348 C26.8261994,13.5504348 26.0095249,13.6217391 25.2122531,13.7556522 C23.935207,12.9626087 22.4218015,12.5 20.7990357,12.5 C16.2147225,12.5 12.5,16.1626087 12.5,20.6826087 C12.5,22.1921739 12.9180386,23.606087 13.6412277,24.82 C13.4507291,25.7365217 13.351952,26.686087 13.351952,27.6565217 C13.351952,35.4495652 19.7565851,41.7643478 27.6605127,41.7643478 C28.5547977,41.7643478 29.431444,41.6843478 30.2798683,41.5295652 C31.449318,42.1486957 32.784572,42.5 34.2027281,42.5 C38.7852775,42.5 42.5,38.8373913 42.5,34.3173913 C42.5,33.0130435 42.1895579,31.78 41.6374647,30.6843478 L41.6374647,30.6843478 Z M34.8853481,34.3591304 C34.2256585,35.2826087 33.2467074,36.0147826 31.9784807,36.5347826 C30.724365,37.0478261 29.2197789,37.3086957 27.5088194,37.3086957 C25.4521402,37.3086957 23.7305974,36.9521739 22.3847601,36.2495652 C21.4234478,35.7382609 20.6314675,35.046087 20.028222,34.1869565 C19.4214487,33.3243478 19.1127705,32.4669565 19.1127705,31.6391304 C19.1127705,31.1226087 19.3138523,30.6756522 19.7089605,30.3086957 C20.1023048,29.9434783 20.6032455,29.7608696 21.2029633,29.7608696 C21.6950847,29.7608696 22.1201787,29.9052174 22.4641345,30.1904348 C22.7922154,30.4669565 23.0744356,30.8756522 23.3037394,31.4008696 C23.5559737,31.9747826 23.8329022,32.4565217 24.1239417,32.8356522 C24.4043979,33.2043478 24.8100894,33.5121739 25.3233772,33.7521739 C25.8419567,33.993913 26.5422154,34.1173913 27.4029868,34.1173913 C28.5847836,34.1173913 29.5549153,33.8686957 30.2851599,33.3765217 C30.9977658,32.8982609 31.3434854,32.3208696 31.3434854,31.6165217 C31.3434854,31.06 31.1635701,30.6234783 30.7913923,30.2773913 C30.4015757,29.9191304 29.8882879,29.6408696 29.2638758,29.4478261 C28.6147695,29.2495652 27.7310677,29.0321739 26.6392286,28.806087 C25.1540452,28.4930435 23.8928739,28.1208696 22.8892286,27.7017391 C21.8626529,27.2704348 21.0353951,26.6721739 20.4303857,25.926087 C19.8165569,25.1678261 19.5061148,24.2182609 19.5061148,23.0982609 C19.5061148,22.033913 19.8324318,21.0721739 20.4762465,20.2443478 C21.1165334,19.4217391 22.0513876,18.7817391 23.2543509,18.3452174 C24.4432032,17.9121739 25.8543039,17.6913043 27.4523754,17.6913043 C28.7311853,17.6913043 29.8530103,17.8391304 30.7913923,18.1243478 C31.7350659,18.4130435 32.52881,18.8043478 33.1549859,19.286087 C33.7829257,19.7713043 34.2538805,20.2878261 34.5466839,20.8269565 C34.8430151,21.3713043 34.9929445,21.9121739 34.9929445,22.4373913 C34.9929445,22.9417391 34.7971543,23.3991304 34.4055738,23.7991304 C34.0139934,24.2008696 33.5201082,24.4043478 32.9362653,24.4043478 C32.4071025,24.4043478 31.9925917,24.2756522 31.70508,24.0269565 C31.4369708,23.7904348 31.1600423,23.4269565 30.8513641,22.9034783 C30.4950611,22.2356522 30.0629116,21.7086957 29.5672625,21.3382609 C29.0857244,20.9765217 28.281397,20.793913 27.1772107,20.793913 C26.1523989,20.793913 25.3180856,20.9973913 24.6972013,21.3973913 C24.1010113,21.7834783 23.8117357,22.2252174 23.8117357,22.7504348 C23.8117357,23.0721739 23.9052211,23.34 24.0974835,23.5695652 C24.3003293,23.8182609 24.587841,24.0304348 24.9494356,24.2095652 C25.3251411,24.3973913 25.7149577,24.5452174 26.1012465,24.6495652 C26.4981185,24.7591304 27.1666275,24.9191304 28.0803151,25.1278261 C29.2391816,25.3747826 30.3045626,25.6478261 31.2447084,25.9452174 C32.1972013,26.2478261 33.0209313,26.6147826 33.692968,27.0478261 C34.3773518,27.4878261 34.9206256,28.0513043 35.3051505,28.726087 C35.6914393,29.4043478 35.8872295,30.2408696 35.8872295,31.2130435 C35.8872295,32.3730435 35.5503293,33.433913 34.8853481,34.3591304 L34.8853481,34.3591304 Z" id="Shape" fill="#000000"></path>
                </g>
            </g>
        </g>
    </g>
</svg>