<?xml version="1.0" encoding="UTF-8"?>
<svg width="55px" height="56px" viewBox="0 0 55 56" version="1.1" xmlns="http://www.w3.org/2000/svg" xmlns:xlink="http://www.w3.org/1999/xlink">
    <!-- Generator: sketchtool 40.3 (33839) - http://www.bohemiancoding.com/sketch -->
    <title>1F1868AC-FEF1-4801-A333-7A7C1BA03F39</title>
    <desc>Created with sketchtool.</desc>
    <defs>
        <circle id="path-1" cx="27.5" cy="27.5" r="27.5"></circle>
        <mask id="mask-2" maskContentUnits="userSpaceOnUse" maskUnits="objectBoundingBox" x="0" y="0" width="55" height="55" fill="white">
            <use xlink:href="#path-1"></use>
        </mask>
    </defs>
    <g id="Page-1" stroke="none" stroke-width="1" fill="none" fill-rule="evenodd">
        <g id="Popin-collaborative-url" transform="translate(-649.000000, -725.000000)">
            <g id="Réseaux-sociaux" transform="translate(576.000000, 725.000000)">
                <g id="slack" transform="translate(73.000000, 0.500000)">
                    <rect id="Rectangle" x="0" y="0" width="55" height="55"></rect>
                    <use id="Oval" stroke="#000000" mask="url(#mask-2)" stroke-width="4" xlink:href="#path-1"></use>
                    <path d="M35.3198299,29.8543289 L33.5383423,30.4507362 L34.1553747,32.2949582 C34.4054533,33.0408971 34.003265,33.848711 33.2564668,34.0987896 C33.0940447,34.1537897 32.9290444,34.1769928 32.7674816,34.172696 C32.1848243,34.1572272 31.647714,33.7842578 31.4526355,33.1998817 L30.8347438,31.3565191 L27.1609091,32.5871463 L27.7779414,34.4305089 C28.02802,35.1773071 27.6258318,35.9851211 26.8790336,36.2351996 C26.7166114,36.2893404 26.5516111,36.3125435 26.3900483,36.3082466 C25.807391,36.2936372 25.2702807,35.9198084 25.0752022,35.3362918 L24.4573105,33.4920697 L22.675823,34.0893364 C22.5134008,34.1434772 22.3475411,34.1666803 22.1859783,34.1623834 C21.6041804,34.147774 21.0670701,33.7739452 20.8711322,33.1895692 C20.6210537,32.4436304 21.0232419,31.6358164 21.7700401,31.3857379 L23.552387,30.7884712 L22.3673068,27.2521367 L20.5858192,27.8494034 C20.4233971,27.9035442 20.2583968,27.9267473 20.0959746,27.9224504 C19.5141767,27.907841 18.9770664,27.5340122 18.7811285,26.9496362 C18.53105,26.2036974 18.9340975,25.3958834 19.6800364,25.1458049 L21.4623833,24.5485382 L20.8444916,22.7051755 C20.594413,21.9583773 20.9966012,21.1505634 21.7433994,20.9013442 C22.4901976,20.6512656 23.2980116,21.0534538 23.5480901,21.800252 L24.1651225,23.6436147 L27.8398165,22.4129875 L27.2219248,20.5696248 C26.9718463,19.8228266 27.3748938,19.0150127 28.1208327,18.7649341 C28.8676309,18.5148555 29.6754448,18.9179031 29.9255234,19.663842 L30.5425557,21.508064 L32.3249027,20.9107973 C33.0717009,20.6607187 33.8786554,21.0637663 34.128734,21.8097052 C34.3788126,22.5565034 33.9766244,23.3643173 33.2298262,23.6143959 L31.4483386,24.2108032 L32.6325595,27.747997 L34.4149064,27.1507303 C35.1608452,26.9015111 35.9686592,27.3036993 36.2187377,28.0496382 C36.4688163,28.7964364 36.0666281,29.6042503 35.3198299,29.8543289 M24.9218949,26.1525221 L26.1061158,29.6888565 L29.7808098,28.4582293 L28.596589,24.9218949 L24.9218949,26.1525221 Z M40.0988228,23.7200992 C37.264599,14.2703948 33.1696698,12.066094 23.7199655,14.9011772 C14.2711205,17.735401 12.0659603,21.8303302 14.9010435,31.2800345 C17.7361267,40.7288795 21.8310558,42.9340397 31.2799008,40.0989565 C40.7296052,37.2638733 42.933906,33.1689442 40.0988228,23.7200992 Z" id="Shape" fill="#000000"></path>
                </g>
            </g>
        </g>
    </g>
</svg>