<?xml version="1.0" encoding="UTF-8"?>
<svg width="31px" height="34px" viewBox="0 0 31 34" version="1.1" xmlns="http://www.w3.org/2000/svg" xmlns:xlink="http://www.w3.org/1999/xlink">
    <!-- Generator: sketchtool 40.3 (33839) - http://www.bohemiancoding.com/sketch -->
    <title>03376F4E-4C3A-45BE-8A0A-07DC3F5B24FD</title>
    <desc>Created with sketchtool.</desc>
    <defs></defs>
    <g id="Page-1" stroke="none" stroke-width="1" fill="none" fill-rule="evenodd">
        <g id="Contenu" transform="translate(-1146.000000, -50.000000)" fill="#FFFFFF">
            <g id="Header" transform="translate(-4.000000, 0.000000)">
                <g id="Mon-compte" transform="translate(978.000000, 46.000000)">
                    <g id="Notif" transform="translate(172.000000, 0.000000)">
                        <path d="M15.1704545,4 C9.88724184,4 5.4458042,8.37520886 5.4458042,13.6590909 C5.4458042,19.1206114 4.16569674,21.7955614 2.83230441,24.0667614 C1.49891209,26.3379614 0,28.3099227 0,31.8181818 C4.08435315e-05,32.2227698 0.370637933,32.5908685 0.777972028,32.5909091 L11.2805944,32.5909091 L11.2805944,34.1363636 C11.2805944,36.26345 13.0289286,38 15.1704545,38 C17.3119805,38 19.0603147,36.26345 19.0603147,34.1363636 L19.0603147,32.5909091 L29.5629371,32.5909091 C29.9702712,32.5908685 30.3408682,32.2227698 30.3409091,31.8181818 C30.3409091,28.3099227 28.841997,26.3379614 27.5086047,24.0667614 C26.1752124,21.7955614 24.8951049,19.1206114 24.8951049,13.6590909 C24.8951049,8.37520886 20.4536673,4 15.1704545,4 L15.1704545,4 Z M23.3391608,13.6590909 C23.3391608,19.3700168 24.7819555,22.4727023 26.1714653,24.8394886 C27.4309067,26.9846955 28.500046,28.4949909 28.6998743,31.0454545 L1.64103475,31.0454545 C1.84086309,28.4949909 2.91000243,26.9846955 4.16944384,24.8394886 C5.55895361,22.4727023 7.00174825,19.3700168 7.00174825,13.6590909 C7.00174825,9.23958159 10.7562459,5.54545455 15.1704545,5.54545455 C19.5846632,5.54545455 23.3391608,9.23958159 23.3391608,13.6590909 Z M12.8365385,32.5909091 L17.5043706,32.5909091 L17.5043706,34.1363636 C17.5043706,35.4340045 16.4769006,36.4545455 15.1704545,36.4545455 C13.8640085,36.4545455 12.8365385,35.4340045 12.8365385,34.1363636 L12.8365385,32.5909091 Z" id="Shape"></path>
                    </g>
                </g>
            </g>
        </g>
    </g>
</svg>