<?xml version="1.0" encoding="UTF-8"?>
<svg width="27px" height="32px" viewBox="0 0 27 32" version="1.1" xmlns="http://www.w3.org/2000/svg" xmlns:xlink="http://www.w3.org/1999/xlink">
    <!-- Generator: sketchtool 40.3 (33839) - http://www.bohemiancoding.com/sketch -->
    <title>F3FAF0E2-5989-4E4B-84FE-5FEC14442388</title>
    <desc>Created with sketchtool.</desc>
    <defs></defs>
    <g id="Page-1" stroke="none" stroke-width="1" fill="none" fill-rule="evenodd">
        <g id="Contenu" transform="translate(-1197.000000, -48.000000)" fill="#FFFFFF">
            <g id="Header" transform="translate(-4.000000, 0.000000)">
                <g id="Mon-compte" transform="translate(978.000000, 46.000000)">
                    <g id="Panier" transform="translate(223.000000, 1.000000)">
                        <g id="Panier2" transform="translate(0.444444, 1.000000)">
                            <g id="Group">
                                <path d="M22.6958222,31.8528 L3.61564444,31.8528 C1.70737778,31.8528 0.154311111,30.3000889 0.154311111,28.3918222 L0.4608,8.92942222 C0.4608,6.70364444 1.83004444,6.39573333 3.30915556,6.39573333 L23.0019556,6.39573333 C24.4814222,6.39573333 25.8503111,6.70364444 25.8503111,8.93831111 L26.1564444,28.3832889 C26.1564444,30.3000889 24.6040889,31.8528 22.6958222,31.8528 L22.6958222,31.8528 Z M3.30951111,7.50044444 C1.8752,7.50044444 1.56551111,7.75537778 1.56551111,8.93831111 L1.25902222,28.4007111 C1.25902222,29.6913778 2.31608889,30.7484444 3.61564444,30.7484444 L22.6958222,30.7484444 C23.9950222,30.7484444 25.0520889,29.6913778 25.0520889,28.3921778 L24.7459556,8.9472 C24.7459556,7.75573333 24.4362667,7.5008 23.0019556,7.5008 L3.30951111,7.5008 L3.30951111,7.50044444 Z" id="Shape"></path>
                                <path d="M18.5649778,6.95573333 C18.2599111,6.95573333 18.0128,6.70862222 18.0128,6.40355556 L18.0128,4.42417778 C18.0128,2.6752 16.5898667,1.25191111 14.8405333,1.25191111 L11.4709333,1.25191111 C9.7216,1.25191111 8.29866667,2.6752 8.29866667,4.42417778 L8.29866667,6.40355556 C8.29866667,6.70897778 8.05155556,6.95573333 7.74648889,6.95573333 C7.44142222,6.95573333 7.19431111,6.70862222 7.19431111,6.40355556 L7.19431111,4.42417778 C7.19431111,2.06577778 9.11288889,0.1472 11.4712889,0.1472 L14.8408889,0.1472 C17.1992889,0.1472 19.1178667,2.06577778 19.1178667,4.42417778 L19.1178667,6.40355556 C19.1175111,6.70862222 18.8700444,6.95573333 18.5649778,6.95573333 L18.5649778,6.95573333 Z" id="Shape"></path>
                            </g>
                        </g>
                    </g>
                </g>
            </g>
        </g>
    </g>
</svg>